<svg width="240" height="240" viewBox="0 0 240 240" fill="none" xmlns="http://www.w3.org/2000/svg">
<path d="M136.92 110.639L136.922 128.82H142.232V110.639H136.92ZM95.1552 110.614V128.82H100.511V114.996L104.661 114.997C106.036 114.997 107.015 115.329 107.678 116.012C108.517 116.877 108.86 118.273 108.86 120.826V128.82H114.049V118.761C114.049 111.582 109.318 110.614 104.689 110.614H95.1552ZM145.469 110.64V128.82H154.079C158.667 128.82 160.164 128.082 161.785 126.427C162.929 125.266 163.668 122.717 163.668 119.929C163.668 117.375 163.043 115.094 161.951 113.674C159.983 111.135 157.149 110.64 152.92 110.64H145.469ZM150.735 114.597H153.018C156.329 114.597 158.471 116.037 158.471 119.768C158.471 123.502 156.329 124.939 153.018 124.939H150.735V114.597ZM129.266 110.64L124.835 125.048L120.589 110.64H114.859L120.921 128.82H128.574L134.684 110.64H129.266ZM166.139 128.82H171.448V110.64H166.139V128.82ZM181.022 110.645L173.609 128.813H178.844L180.017 125.603H188.783L189.903 128.813H195.588L188.111 110.645H181.022ZM184.469 113.961L187.68 122.472H181.151L184.469 113.961Z" fill="white"/>
<path d="M61.1534 114.211V111.617C61.4133 111.599 61.6762 111.585 61.9443 111.577C69.2796 111.355 74.091 117.673 74.091 117.673C74.091 117.673 68.8939 124.655 63.3213 124.655C62.5192 124.655 61.8 124.529 61.1534 124.32V116.454C64.0088 116.788 64.5827 118.008 66.2994 120.775L70.1175 117.661C70.1175 117.661 67.3306 114.126 62.6328 114.126C62.1212 114.126 61.6322 114.161 61.1534 114.211ZM61.1534 105.643V109.517C61.4164 109.497 61.6803 109.481 61.9443 109.472C72.1452 109.139 78.7899 117.562 78.7899 117.562C78.7899 117.562 71.1569 126.539 63.2047 126.539C62.4762 126.539 61.7939 126.474 61.1534 126.364V128.759C61.7008 128.826 62.2696 128.866 62.8619 128.866C70.2617 128.866 75.6133 125.211 80.7961 120.885C81.6545 121.551 85.1717 123.169 85.8961 123.878C80.968 127.868 69.4852 131.083 62.9755 131.083C62.3484 131.083 61.7447 131.047 61.1534 130.991V134.358H89.2793V105.643H61.1534ZM61.1534 124.32V126.364C54.3081 125.184 52.4083 118.303 52.4083 118.303C52.4083 118.303 55.6954 114.781 61.1534 114.211V116.454C61.1483 116.454 61.1463 116.453 61.1422 116.453C58.2786 116.121 56.0402 118.708 56.0402 118.708C56.0402 118.708 57.2945 123.066 61.1534 124.32ZM48.9964 118.005C48.9964 118.005 53.0529 112.216 61.1534 111.617V109.517C52.1812 110.213 44.4121 117.562 44.4121 117.562C44.4121 117.562 48.8123 129.865 61.1534 130.991V128.759C52.0973 127.657 48.9964 118.005 48.9964 118.005Z" fill="white"/>
</svg>
