<svg width="240" height="240" viewBox="0 0 240 240" fill="none" xmlns="http://www.w3.org/2000/svg">
<path d="M77.7725 122.365V126.116C106.779 124.391 85.2071 123.494 77.7725 122.365Z" fill="white"/>
<path d="M77.7725 128.564V132.248L78.0148 132.308C100.113 130.267 93.7702 129.523 77.7725 128.564Z" fill="white"/>
<path d="M77.7725 95.9302V108.044C95.9588 107.429 96.0486 106.397 86.6174 105.146L88.314 103.085C99.958 104.873 99.2201 107.803 90.8581 109.269C93.6607 110.255 103.592 112.082 91.5852 115.696C93.5386 116.227 104.557 118.956 90.8581 121.395C93.0287 122.375 104.544 123.782 91.3429 127.336C94.7613 127.899 103.545 129.773 91.9488 133.521C96.3331 133.98 96.8287 134.132 98.0064 136.188V144.07H103.338V95.9302" fill="white"/>
<path d="M77.7725 116.666V120.425C83.2286 119.351 108.133 118.915 77.7725 116.666Z" fill="white"/>
<path d="M77.7725 110.26V114.24C94.8223 113.323 100.583 112.134 77.7725 110.26Z" fill="white"/>
<path d="M109.599 108.767H106.691V108.194H113.128V108.767H110.22V116.546H109.599" fill="white"/>
<path d="M114.702 108.194H115.322V112.06H120.663V108.194H121.283V116.546H120.663V112.632H115.322V116.546H114.702" fill="white"/>
<path d="M123.452 108.194H129.389V108.767H124.073V112.048H128.853V112.621H124.073V115.973H129.449V116.546H123.452" fill="white"/>
<path d="M107.122 121.346H109.891L111.54 126.822L113.364 121.32H115.62L117.443 126.822L119.092 121.346H121.808L118.646 130.878H116.363L114.471 125.43L112.567 130.878H110.283" fill="white"/>
<path d="M128.427 125.154C128.302 124.073 127.654 123.389 126.719 123.389C125.819 123.389 125.208 124.073 125.028 125.154H128.427ZM121.808 126V125.964C121.808 123.119 123.84 120.869 126.719 120.869C130.066 120.869 131.611 123.336 131.611 126.198C131.611 126.414 131.611 126.666 131.594 126.901H125.082C125.352 127.963 126.126 128.502 127.187 128.502C128.014 128.502 128.644 128.196 129.346 127.512L131.234 129.078C130.299 130.266 128.95 131.058 127.025 131.058C123.967 131.058 121.808 129.006 121.808 126Z" fill="white"/>
<path d="M138.024 126.957H136.025V128.701H138.051C138.861 128.701 139.307 128.39 139.307 127.836V127.809C139.307 127.295 138.902 126.957 138.024 126.957ZM138.929 124.267C138.929 123.739 138.51 123.455 137.741 123.455H136.025V125.118H137.673C138.47 125.118 138.929 124.848 138.929 124.293V124.267ZM133.471 121.346H138.321C139.51 121.346 140.348 121.643 140.902 122.185C141.28 122.577 141.509 123.077 141.509 123.726V123.753C141.509 124.848 140.888 125.497 140.05 125.862C141.199 126.24 141.929 126.89 141.929 128.175V128.201C141.929 129.824 140.605 130.81 138.349 130.81H133.471" fill="white"/>
<path d="M148.502 126.957H146.502V128.701H148.529C149.34 128.701 149.785 128.39 149.785 127.836V127.809C149.785 127.295 149.38 126.957 148.502 126.957ZM149.407 124.267C149.407 123.739 148.989 123.455 148.219 123.455H146.502V125.118H148.151C148.948 125.118 149.407 124.848 149.407 124.293V124.267ZM143.949 121.346H148.799C149.988 121.346 150.826 121.643 151.38 122.185C151.757 122.577 151.987 123.077 151.987 123.726V123.753C151.987 124.848 151.366 125.497 150.529 125.862C151.677 126.24 152.406 126.89 152.406 128.175V128.201C152.406 129.824 151.082 130.81 148.827 130.81H143.949" fill="white"/>
<path d="M156.013 127.268L152.406 121.346H155.392L157.338 124.794L159.296 121.346H162.228L158.633 127.228V130.81H156.013" fill="white"/>
<path d="M113.88 140.367L111.687 135.535L109.482 140.367H113.88ZM111.401 134.855H111.997L115.883 143.267H115.204L114.143 140.928H109.219L108.158 143.267H107.515" fill="white"/>
<path d="M115.835 134.915H116.527L119.149 142.348L121.593 134.891H122.07L124.514 142.348L127.137 134.915H127.78L124.752 143.326H124.252L121.808 136.072L119.363 143.326H118.862" fill="white"/>
<path d="M134.301 140.373L132.107 135.541L129.901 140.373H134.301ZM131.821 134.861H132.417L136.303 143.272H135.624L134.563 140.935H129.639L128.578 143.272H127.935" fill="white"/>
<path d="M141.171 139.246C142.566 139.246 143.603 138.542 143.603 137.337V137.313C143.603 136.192 142.721 135.488 141.207 135.488H138.358V139.246H141.171ZM137.737 134.915H141.243C142.268 134.915 143.09 135.237 143.591 135.738C143.984 136.132 144.223 136.692 144.223 137.289V137.313C144.223 138.708 143.186 139.509 141.779 139.699L144.533 143.267H143.746L141.088 139.807H138.358V143.267H137.737" fill="white"/>
<path d="M146.687 135.488V142.694H148.845C151.17 142.694 152.635 141.107 152.635 139.114V139.09C152.635 137.11 151.17 135.488 148.845 135.488H146.687ZM146.067 134.915H148.845C151.468 134.915 153.28 136.717 153.28 139.067V139.09C153.28 141.441 151.468 143.267 148.845 143.267H146.067" fill="white"/>
<path d="M154.424 142.049L154.828 141.584C155.748 142.431 156.593 142.825 157.821 142.825C159.073 142.825 159.931 142.121 159.931 141.167V141.143C159.931 140.26 159.467 139.747 157.572 139.365C155.569 138.96 154.757 138.28 154.757 137.015V136.991C154.757 135.75 155.89 134.796 157.44 134.796C158.656 134.796 159.454 135.13 160.301 135.81L159.908 136.299C159.12 135.619 158.334 135.356 157.417 135.356C156.188 135.356 155.378 136.061 155.378 136.931V136.956C155.378 137.838 155.831 138.375 157.809 138.78C159.74 139.174 160.552 139.866 160.552 141.083V141.107C160.552 142.455 159.396 143.385 157.785 143.385C156.451 143.385 155.425 142.944 154.424 142.049Z" fill="white"/>
</svg>
