<svg width="240" height="240" viewBox="0 0 240 240" fill="none" xmlns="http://www.w3.org/2000/svg">
<path d="M131.242 137.86C129.07 139.905 126.673 139.587 124.388 138.622C121.958 137.639 119.738 137.577 117.172 138.622C113.977 139.96 112.282 139.571 110.357 137.86C99.494 127.013 101.098 110.489 113.444 109.867C116.439 110.023 118.535 111.473 120.299 111.594C122.921 111.076 125.43 109.595 128.236 109.79C131.607 110.054 134.129 111.345 135.812 113.666C128.877 117.709 130.521 126.574 136.891 129.062C135.616 132.308 133.98 135.516 131.238 137.888L131.242 137.86ZM120.058 109.751C119.734 104.93 123.762 100.964 128.396 100.575C129.034 106.135 123.185 110.295 120.058 109.751Z" fill="white"/>
</svg>
