<svg width="240" height="240" viewBox="0 0 240 240" fill="none" xmlns="http://www.w3.org/2000/svg">
<path d="M110.385 121.131C110.385 127.327 105.441 131.894 99.3736 131.894C93.3063 131.894 88.3625 127.327 88.3625 121.131C88.3625 114.89 93.3063 110.367 99.3736 110.367C105.441 110.367 110.385 114.89 110.385 121.131ZM105.565 121.131C105.565 117.258 102.699 114.609 99.3736 114.609C96.048 114.609 93.1826 117.258 93.1826 121.131C93.1826 124.964 96.048 127.653 99.3736 127.653C102.699 127.653 105.565 124.959 105.565 121.131Z" fill="white"/>
<path d="M134.139 121.131C134.139 127.327 129.195 131.894 123.128 131.894C117.061 131.894 112.117 127.327 112.117 121.131C112.117 114.895 117.061 110.367 123.128 110.367C129.195 110.367 134.139 114.89 134.139 121.131ZM129.319 121.131C129.319 117.258 126.454 114.609 123.128 114.609C119.802 114.609 116.937 117.258 116.937 121.131C116.937 124.964 119.802 127.653 123.128 127.653C126.454 127.653 129.319 124.959 129.319 121.131Z" fill="white"/>
<path d="M156.904 111.018V130.341C156.904 138.29 152.123 141.536 146.472 141.536C141.152 141.536 137.95 138.047 136.742 135.194L140.939 133.481C141.686 135.233 143.517 137.3 146.467 137.3C150.084 137.3 152.326 135.111 152.326 130.991V129.443H152.158C151.079 130.749 149 131.889 146.377 131.889C140.889 131.889 135.861 127.201 135.861 121.169C135.861 115.094 140.889 110.367 146.377 110.367C148.995 110.367 151.074 111.508 152.158 112.774H152.326V111.022H156.904V111.018ZM152.667 121.169C152.667 117.379 150.089 114.609 146.808 114.609C143.482 114.609 140.696 117.379 140.696 121.169C140.696 124.921 143.482 127.653 146.808 127.653C150.089 127.653 152.667 124.921 152.667 121.169Z" fill="white"/>
<path d="M164.451 99.6915V131.234H159.749V99.6915H164.451Z" fill="white"/>
<path d="M182.771 124.673L186.512 127.119C185.305 128.871 182.395 131.889 177.367 131.889C171.131 131.889 166.475 127.163 166.475 121.126C166.475 114.725 171.171 110.363 176.828 110.363C182.524 110.363 185.31 114.808 186.22 117.21L186.72 118.433L172.047 124.392C173.17 126.551 174.917 127.653 177.367 127.653C179.822 127.653 181.524 126.469 182.771 124.673ZM171.255 120.801L181.064 116.807C180.524 115.463 178.901 114.526 176.991 114.526C174.541 114.526 171.131 116.647 171.255 120.801Z" fill="white"/>
<path d="M70.5665 118.331V113.764H86.2592C86.4126 114.56 86.4918 115.502 86.4918 116.521C86.4918 119.947 85.5367 124.183 82.4585 127.201C79.4645 130.259 75.639 131.889 70.5715 131.889C61.1786 131.889 53.2803 124.387 53.2803 115.176C53.2803 105.966 61.1786 98.4637 70.5715 98.4637C75.7677 98.4637 79.4694 100.463 82.2507 103.069L78.9647 106.291C76.9703 104.457 74.2682 103.03 70.5665 103.03C63.7074 103.03 58.3429 108.451 58.3429 115.176C58.3429 121.902 63.7074 127.323 70.5665 127.323C75.0155 127.323 77.5493 125.571 79.1725 123.979C80.4889 122.688 81.3549 120.844 81.6964 118.326L70.5665 118.331Z" fill="white"/>
</svg>
