<svg width="240" height="240" viewBox="0 0 240 240" fill="none" xmlns="http://www.w3.org/2000/svg">
<g clip-path="url(#clip0_2657_28594)">
<path d="M65.4979 111.522C65.4979 111.522 62.6319 109.183 58.9754 109.183C58.9754 109.183 54.6271 109.183 51.5635 112.302C51.5635 112.302 48.4999 115.42 48.4999 119.708C48.4999 119.708 48.4999 123.995 51.5635 127.114C51.5635 127.114 54.6271 130.135 58.9754 130.135C58.9754 130.135 62.6319 130.135 65.4979 127.893L66.8814 129.258C66.8814 129.258 63.4225 132.084 58.9754 132.084C58.9754 132.084 53.8365 132.084 50.18 128.381C50.18 128.381 46.5234 124.775 46.5234 119.708C46.5234 119.708 46.5234 114.64 50.18 111.035C50.18 111.035 53.8365 107.332 58.9754 107.332C58.9754 107.332 63.4225 107.332 66.8814 110.06L65.4979 111.522Z" fill="white"/>
<path d="M75.4792 116.102C72.1191 116.102 69.7473 118.441 69.7473 118.441C67.3755 120.78 67.3755 124.093 67.3755 124.093C67.3755 127.406 69.7473 129.745 69.7473 129.745C72.1191 132.084 75.4792 132.084 75.4792 132.084C79.3334 132.084 81.9028 128.868 81.9028 128.868V131.694H83.6817V116.589H81.9028V119.22C79.4322 116.102 75.4792 116.102 75.4792 116.102ZM75.4792 117.856C78.0486 117.856 79.9263 119.61 79.9263 119.61C81.804 121.462 81.804 124.093 81.804 124.093C81.804 126.627 79.9263 128.478 79.9263 128.478C78.0486 130.33 75.4792 130.33 75.4792 130.33C72.8109 130.33 71.0321 128.478 71.0321 128.478C69.1544 126.627 69.1544 124.093 69.1544 124.093C69.1544 121.462 71.0321 119.61 71.0321 119.61C72.8109 117.856 75.4792 117.856 75.4792 117.856Z" fill="white"/>
<path d="M109.179 109.67C109.179 109.67 108.091 109.67 108.091 108.598C108.091 108.598 108.091 107.429 109.179 107.429C109.179 107.429 110.364 107.429 110.364 108.598C110.364 108.598 110.364 109.67 109.179 109.67Z" fill="white"/>
<path d="M89.0182 107.429V131.694H87.1405V107.429H89.0182Z" fill="white"/>
<path d="M98.4066 128.381L103.842 116.589H105.818L98.4066 132.668L90.7971 116.589H92.8724L98.4066 128.381Z" fill="white"/>
<path d="M115.207 118.051C115.207 118.051 116.689 116.102 119.555 116.102C119.555 116.102 122.125 116.102 123.903 117.856C123.903 117.856 125.682 119.61 125.682 122.144V131.694H123.903V122.144C123.903 122.144 123.903 120.292 122.619 119.026C122.619 119.026 121.433 117.759 119.555 117.759C119.555 117.759 117.776 117.759 116.492 118.928C116.492 118.928 115.207 120.195 115.207 122.144V131.694H113.428V116.589H115.207V118.051Z" fill="white"/>
<path d="M110.068 116.589V131.694H108.289V116.589H110.068Z" fill="white"/>
<path d="M149.302 107.527L139.518 117.954L149.203 131.694H146.93L138.233 119.318L136.454 121.169V131.694H134.675V107.429H136.454V118.441L146.732 107.527H149.302Z" fill="white"/>
<path d="M153.847 107.429V131.694H151.97V107.429H153.847Z" fill="white"/>
<path d="M164.817 116.102C161.457 116.102 159.085 118.441 159.085 118.441C156.812 120.682 156.812 124.093 156.812 124.093C156.812 127.406 159.085 129.647 159.085 129.647C161.457 131.986 164.817 131.986 164.817 131.986C169.956 131.986 172.13 127.504 172.13 127.504L170.549 126.821C168.77 130.232 164.817 130.232 164.817 130.232C162.248 130.232 160.469 128.478 160.469 128.478C158.591 126.724 158.591 124.19 158.591 124.19H172.921V124.093C172.921 120.682 170.549 118.441 170.549 118.441C168.177 116.102 164.817 116.102 164.817 116.102ZM164.817 117.759C166.991 117.759 168.671 119.123 168.671 119.123C170.351 120.39 170.944 122.339 170.944 122.339H158.789C159.382 120.39 160.963 119.123 160.963 119.123C162.742 117.759 164.817 117.759 164.817 117.759Z" fill="white"/>
<path d="M175.688 108.598C175.688 108.598 175.688 107.429 176.775 107.429C176.775 107.429 177.862 107.429 177.862 108.598C177.862 108.598 177.862 109.67 176.775 109.67C176.775 109.67 175.688 109.67 175.688 108.598Z" fill="white"/>
<path d="M183.001 116.589V118.051C183.001 118.051 184.384 116.102 187.349 116.102C187.349 116.102 189.919 116.102 191.697 117.856C191.697 117.856 193.476 119.61 193.476 122.144V131.694H191.599V122.144C191.599 122.144 191.599 120.292 190.413 119.026C190.413 119.026 189.128 117.759 187.349 117.759C187.349 117.759 185.472 117.759 184.286 118.928C184.286 118.928 183.001 120.195 183.001 122.144V131.694H181.123V116.589H183.001Z" fill="white"/>
<path d="M177.664 116.589V131.694H175.885V116.589H177.664Z" fill="white"/>
</g>
<defs>
<clipPath id="clip0_2657_28594">
<rect width="240" height="240" rx="8.44557" fill="white"/>
</clipPath>
</defs>
</svg>
