<svg width="240" height="240" viewBox="0 0 240 240" fill="none" xmlns="http://www.w3.org/2000/svg">
<path fill-rule="evenodd" clip-rule="evenodd" d="M180.83 108.411V104.363H183.637V108.411L187.536 107.144L188.428 109.89L184.547 111.151L186.934 114.435L184.597 116.131L182.234 112.879L179.871 116.131L177.534 114.435L179.92 111.151L176.04 109.89L176.932 107.144L180.83 108.411ZM95.6387 130.119H91.588V106.382H95.6387V130.119ZM80.2078 125.598C80.2078 123.819 81.0225 123.395 83.5093 123.112L84.7707 122.97V126.709C84.1974 127.327 83.42 127.768 82.2217 127.768C81.1029 127.768 80.2078 127.073 80.2078 125.598ZM83.0792 113.968C81.6305 113.968 80.358 114.206 79.0309 114.68C78.1991 114.976 77.6933 115.239 77.0438 115.576L77.0434 115.576L77.0409 115.578L77.0405 115.578L77.0401 115.578L77.0395 115.579C76.9507 115.625 76.8592 115.672 76.7638 115.721L77.9178 118.644L77.9807 118.616C79.8619 117.779 81.1238 117.218 82.5972 117.218C84.428 117.218 84.7707 117.641 84.7707 119.523V120.469C84.6737 120.46 84.109 120.503 83.65 120.539C83.3559 120.561 83.1052 120.58 83.0485 120.58C78.2404 120.817 76.1473 122.417 76.1473 125.763C76.1473 129.022 78.2719 130.529 81.3923 130.529C82.522 130.529 83.7364 130.165 84.5393 129.363C84.8326 129.07 85.1427 128.755 85.3833 128.327C85.6682 129.18 86.3888 129.738 87.2092 130.066C87.7165 130.268 88.2606 130.383 88.7644 130.426L90.3299 127.545C89.5657 127.388 88.8067 126.889 88.8067 125.92V119.911C88.8214 117.773 88.5786 116.712 87.9581 115.913C87.15 114.591 85.4862 113.968 83.0792 113.968ZM98.1443 130.119H102.195V106.382H98.1443V130.119ZM56.7393 130.12L51.5723 109.661H56.1626L59.1781 124.935L62.2146 109.661H66.6566L69.6991 124.818L72.7633 109.661H76.9617L71.7344 130.12H67.2277L64.3145 115.589L61.3788 130.12H56.7393ZM127.152 123.112C124.665 123.395 123.849 123.819 123.849 125.598C123.849 127.073 124.745 127.768 125.863 127.768C127.062 127.768 127.839 127.327 128.413 126.709V122.97L127.152 123.112ZM122.673 114.68C124 114.206 125.272 113.968 126.721 113.968C129.129 113.968 130.792 114.591 131.6 115.913C132.219 116.712 132.463 117.773 132.449 119.911V125.92C132.449 126.889 133.208 127.388 133.972 127.545L132.407 130.426C131.882 130.38 131.315 130.259 130.792 130.041C129.997 129.71 129.304 129.16 129.026 128.327C128.785 128.755 128.474 129.07 128.182 129.363C127.378 130.165 126.164 130.529 125.034 130.529C121.915 130.529 119.789 129.022 119.789 125.763C119.789 122.417 121.883 120.817 126.69 120.58C126.747 120.58 126.997 120.561 127.291 120.539L127.291 120.539C127.751 120.503 128.316 120.46 128.413 120.469V119.523C128.413 117.641 128.071 117.218 126.24 117.218C124.766 117.218 123.504 117.779 121.623 118.616L121.559 118.644L120.406 115.721C120.505 115.671 120.599 115.622 120.69 115.574C121.338 115.238 121.843 114.976 122.673 114.68ZM160.549 120.452V120.729H155.146L155.144 120.699C155.223 117.655 156.286 116.783 157.919 116.783C159.967 116.783 160.549 118.281 160.549 120.452ZM158.828 130.546C161.146 130.546 163.134 129.808 164.6 128.835L163.666 126.073C162.244 126.84 160.737 127.294 159.131 127.294C157.065 127.294 155.28 126.303 155.28 123.462H164.912V122.124C164.912 119.205 164.327 117.155 163.033 115.757C161.972 114.596 160.274 113.957 158.191 113.957C155.99 113.957 154.225 114.67 152.909 116.146C151.61 117.601 150.959 119.549 150.959 122.287C150.959 127.505 153.941 130.546 158.828 130.546ZM174.414 113.973C175.163 113.973 175.628 114.066 176.156 114.276L175.314 117.87C174.855 117.706 174.33 117.598 173.605 117.598C172.47 117.598 171.491 117.992 170.603 118.718V130.12H166.49V118.504C166.49 117.491 166.372 115.012 166.211 114.586L169.409 114.116C169.585 114.424 170.35 116.307 170.38 116.733C171.001 115.754 171.844 114.821 172.734 114.362C173.217 114.106 173.987 113.973 174.414 113.973ZM113.965 126.496C113.461 127.486 112.654 127.634 111.507 127.634C110.354 127.634 109.392 127.13 108.765 126.673V118.321C109.668 117.608 110.612 117.181 111.806 117.181C112.827 117.181 113.554 117.515 113.984 118.285C114.4 119.011 114.609 120.187 114.609 121.884C114.609 124.121 114.402 125.639 113.965 126.496ZM108.555 116.19C108.54 115.955 108.049 114.543 107.767 114.131L104.56 114.586C104.722 115.012 104.774 117.491 104.774 118.504V135.637H108.749V130.84C108.749 130.696 108.739 130.233 108.73 129.853C108.726 129.652 108.722 129.474 108.72 129.378C109.546 129.988 110.778 130.52 112.375 130.52C114.057 130.52 115.504 129.972 116.589 128.99C118.238 127.486 118.961 125.253 118.961 121.961C118.961 118.39 117.886 116.15 116.145 114.95C115.241 114.325 114.081 113.972 112.818 113.972C111.36 113.972 109.5 114.634 108.555 116.19ZM142.095 127.634C143.243 127.634 144.05 127.486 144.554 126.496C144.991 125.639 145.197 124.121 145.197 121.884C145.197 120.187 144.989 119.011 144.573 118.285C144.142 117.515 143.415 117.181 142.394 117.181C141.201 117.181 140.257 117.608 139.353 118.321V126.673C139.98 127.13 140.943 127.634 142.095 127.634ZM138.355 114.131C138.636 114.543 139.13 115.955 139.143 116.19C140.089 114.634 141.949 113.972 143.407 113.972C144.671 113.972 145.828 114.325 146.733 114.95C148.475 116.15 149.55 118.39 149.55 121.961C149.55 125.253 148.825 127.486 147.178 128.99C146.093 129.972 144.646 130.52 142.964 130.52C141.367 130.52 140.136 129.988 139.308 129.378C139.31 129.487 139.315 129.703 139.32 129.938V129.939C139.329 130.3 139.339 130.706 139.339 130.84V135.637H135.363V118.504C135.363 117.491 135.31 115.012 135.148 114.586L138.355 114.131Z" fill="white"/>
</svg>
