<svg width="240" height="240" viewBox="0 0 240 240" fill="none" xmlns="http://www.w3.org/2000/svg">
<path d="M112.616 133.145C110.037 131.263 106.755 130.479 103.942 130.557C101.051 130.714 99.7222 132.831 99.7222 132.831C98.3937 130.557 95.8152 129.067 91.7515 129.067C85.1874 129.146 78.7017 132.204 73.5444 132.204C68.6215 132.204 65.0267 129.067 65.1048 123.578C65.3392 113.934 73.466 105.152 79.5611 101.231C83.0775 98.9569 85.9691 98.3297 87.9224 98.4865C89.3289 98.6433 91.0481 100.29 89.9541 102.642C88.3912 106.171 86.2034 105.857 86.3596 104.211C86.4377 103.113 87.141 102.407 87.688 102.093C88.0787 101.858 88.6257 101.78 88.9383 101.78C89.2509 101.545 89.4853 99.5842 86.9847 100.212C84.4841 100.839 81.4366 103.348 78.5451 106.485C75.5756 109.699 71.0433 115.737 69.9492 122.088C69.4804 125.146 69.8711 130.478 76.7477 130.478C82.6082 130.4 91.3603 126.558 99.3309 126.636C102.457 126.715 105.113 127.499 107.223 128.832C109.255 130.008 111.756 131.89 112.615 133.144" fill="white"/>
<path d="M109.959 120.365C108.474 121.149 109.021 119.738 109.412 119.111C109.959 118.248 116.445 107.349 116.445 107.349H113.007L112.616 107.976C112.616 107.976 111.913 106.879 110.741 106.957C107.224 107.192 103.161 112.759 101.285 115.19C99.488 117.621 95.5029 122.326 93.4708 121.463C91.2047 120.601 93.4708 116.367 94.9555 113.936C96.5184 111.27 99.4095 108.604 100.504 108.604C101.91 108.526 101.363 109.859 101.363 109.859C101.363 109.859 100.347 109.702 99.5659 110.721C99.0189 111.349 98.6282 112.368 99.0971 112.917C99.8786 113.779 100.973 112.917 101.598 111.976C103.551 108.918 102.145 107.35 100.582 107.114C97.2997 106.644 94.252 110.878 91.9079 112.446C90.345 113.544 89.6417 113.465 89.6417 113.465C89.6417 113.465 92.4549 107.977 89.0947 107.114C85.7345 106.251 80.1864 111.975 77.8423 116.602C76.3576 119.503 75.7324 123.11 78.3111 123.973C80.8898 124.835 85.2661 120.209 86.2818 118.798C87.2977 117.386 89.0168 114.72 89.0168 114.72C89.0168 114.72 89.5638 114.642 89.8764 114.563C90.2671 114.485 90.736 114.328 90.736 114.328C90.736 114.328 90.1108 115.426 89.5638 116.602C88.9387 118.013 87.0633 122.561 90.5797 123.894C94.018 125.149 98.7847 119.739 99.0974 119.66C99.0974 119.66 97.6127 123.424 99.8789 123.973C102.301 124.6 105.036 121.464 105.036 121.464C105.036 121.464 104.489 123.816 106.365 124.051C109.647 124.365 115.664 115.582 115.664 115.582H114.492C114.57 115.582 111.444 119.581 109.959 120.366L109.959 120.365ZM87.6886 114.642C87.6105 114.72 86.5165 116.602 85.5787 117.778C84.5629 119.033 82.7656 120.993 81.6718 120.601C79.9527 119.974 81.8281 116.21 83.0784 114.406C84.3287 112.603 84.4849 112.368 84.5631 112.289L84.6412 112.211C84.7194 112.289 85.11 113.073 85.8915 113.622C86.6729 114.171 87.6106 114.406 87.6888 114.406L87.6886 114.642ZM89.0953 111.74C88.7827 112.603 88.4701 113.152 88.4701 113.23C88.392 113.465 88.0795 113.387 88.0795 113.387C87.845 113.387 85.657 112.917 85.7352 111.192C85.7352 109.545 88.0795 107.898 88.9388 108.604C89.7984 109.31 89.4079 110.956 89.0953 111.74ZM105.505 119.346C104.724 120.209 104.255 120.601 103.786 120.758C103.552 120.836 103.317 120.836 103.161 120.679C102.536 120.287 103.005 118.876 104.099 116.837C105.114 115.034 106.521 113.23 108.24 110.957C110.037 108.761 110.897 108.526 111.444 108.526C111.913 108.526 111.991 108.996 111.991 108.996C111.991 108.996 108.162 115.74 106.755 117.7C106.208 118.406 105.818 118.955 105.505 119.347" fill="white"/>
<path d="M122.227 107.35H118.945L117.069 110.329H120.352L122.227 107.35Z" fill="white"/>
<path d="M170.911 101.86C168.488 103.428 165.128 104.839 161.846 104.526C160.986 105.388 160.127 106.329 159.267 107.427C164.894 108.525 169.817 104.996 172.473 102.095C174.114 100.213 174.896 98.5667 174.896 98.5667C174.896 98.5667 173.333 100.292 170.911 101.86" fill="white"/>
<path d="M161.77 128.833C160.207 129.695 160.754 128.284 161.223 127.578C161.77 126.716 168.178 115.738 168.178 115.738H164.74L164.193 116.601C164.193 116.601 163.489 115.346 162.317 115.346C160.285 115.424 158.176 116.914 155.831 119.658C154.112 121.619 151.221 126.088 151.221 126.088C151.221 126.088 149.033 129.539 147.861 129.225C145.985 128.754 149.424 121.619 149.424 121.619C149.424 121.619 151.299 120.443 153.643 118.404C155.128 117.15 156.925 115.425 158.488 113.778C159.973 112.289 161.692 110.25 163.333 108.054C162.864 108.133 162.473 108.211 162.083 108.211C160.598 110.171 159.113 111.896 157.785 113.308C155.831 115.347 153.956 117.071 152.628 118.091C151.377 119.11 150.518 119.581 150.518 119.581C150.518 119.581 152.94 114.641 157.004 109.074C161.067 103.506 166.615 98.4879 166.225 100.919C166.068 101.625 165.678 102.644 165.053 103.82C165.521 103.742 165.912 103.585 166.381 103.428C167.319 101.468 167.631 99.7428 166.928 99.2722C163.88 97.3119 156.379 105.388 152.628 110.093C148.877 114.719 145.439 121.933 145.439 121.933C145.439 121.933 144.892 122.168 144.188 122.325C143.798 122.404 143.641 122.404 143.563 122.404C143.485 122.404 143.485 122.325 143.485 122.325C143.485 122.325 146.767 116.131 143.407 115.346C140.125 114.562 134.499 120.6 132.467 124.834C131.06 127.735 130.279 131.421 132.701 132.205C135.28 133.146 139.656 128.441 140.672 127.03C141.688 125.619 142.938 123.423 142.938 123.423C142.938 123.423 143.563 123.345 143.876 123.345C144.501 123.266 144.814 123.188 144.814 123.188C144.814 123.188 144.345 124.286 143.954 125.697C143.094 128.363 142.313 132.127 145.439 132.284C147.392 132.362 150.283 128.834 150.283 128.834C150.283 128.834 149.502 131.97 152.081 132.284C153.956 132.519 156.691 129.539 156.691 129.539C156.691 129.539 156.066 132.048 158.019 132.284C159.66 132.441 161.926 130.559 163.88 128.442C165.99 126.168 167.552 123.58 167.552 123.58H166.38C166.302 123.659 163.645 127.736 161.77 128.834L161.77 128.833ZM141.844 123.345C141.766 123.423 140.906 124.991 139.968 126.168C138.952 127.422 137.155 129.382 136.061 128.99C134.342 128.363 136.218 124.599 137.468 122.796C138.718 120.992 138.875 120.836 138.875 120.836L138.953 120.757C139.031 120.836 139.421 121.541 140.125 122.247C140.906 122.874 141.688 123.266 141.688 123.266C141.844 123.188 141.844 123.188 141.844 123.345ZM142.547 122.012C142.469 122.169 142.391 122.169 142.157 122.169C141.766 122.012 140.125 121.228 140.125 119.503C140.125 117.856 142.469 116.209 143.328 116.915C144.188 117.542 143.797 119.189 143.485 120.052C143.172 120.992 142.703 121.855 142.547 122.012ZM157.16 127.657C156.378 128.52 155.909 128.912 155.519 129.069C155.284 129.147 155.05 129.147 154.893 128.99C154.268 128.598 154.737 127.108 155.831 125.07C156.847 123.188 158.019 121.385 159.895 119.268C161.77 117.151 162.551 117.072 163.098 117.072C163.567 117.072 163.645 117.543 163.645 117.543C163.645 117.543 163.567 117.621 163.567 117.778C162.942 118.876 159.738 124.365 158.488 126.089C157.863 126.717 157.472 127.265 157.16 127.657Z" fill="white"/>
<path d="M170.911 101.86C168.488 103.428 165.128 104.839 161.846 104.526C160.986 105.388 160.127 106.329 159.267 107.427C164.894 108.525 169.817 104.996 172.473 102.095C174.114 100.213 174.896 98.5667 174.896 98.5667C174.896 98.5667 173.333 100.292 170.911 101.86" fill="white"/>
<path d="M147.861 98.8019C144.814 98.5667 142.391 99.6645 142.391 99.6645C142.391 99.6645 141.453 98.4099 138.562 98.8019C135.671 99.194 126.763 102.958 119.261 115.111C112.462 126.089 115.666 132.362 120.511 132.283C125.825 132.205 130.904 126.246 132.545 121.384C134.264 116.523 132.233 115.19 130.67 115.268C128.951 115.425 125.903 116.993 124.184 120.365C122.465 123.737 122.465 125.854 122.465 125.854C122.465 125.854 123.324 124.913 124.653 123.893C125.981 122.874 126.997 122.482 126.997 122.482C126.997 122.482 127.231 121.228 127.856 119.973C128.482 118.718 129.419 117.385 130.591 117.072C133.014 116.444 131.842 120.835 130.044 123.737C129.107 125.305 125.747 129.696 122.855 129.696C119.964 129.696 119.417 126.873 120.042 124.286C120.667 121.698 121.527 118.327 125.668 112.289C129.888 106.251 134.498 102.644 137.155 101.155C139.89 99.5863 140.984 100.292 140.984 100.292C140.984 100.292 137.546 102.409 135.514 104.996C133.639 107.506 132.545 110.25 133.404 111.583C134.264 112.838 137.155 112.916 140.359 108.211C143.563 103.585 142.782 100.841 142.782 100.841C142.782 100.841 143.172 100.684 143.407 100.684C144.97 100.449 146.22 100.919 148.173 101.86C150.205 102.879 152.158 104.604 154.816 105.937C155.597 105.075 156.535 104.134 157.473 103.193C154.112 101.546 151.378 98.9587 147.861 98.8019ZM141.219 105.075C140.359 107.271 139.031 108.839 137.702 109.937C135.983 111.427 135.124 111.427 134.733 111.113C133.717 110.329 135.124 107.349 137.468 104.683C139.89 102.017 141.922 101.233 141.922 101.233C141.922 101.233 142.313 102.487 141.219 105.075" fill="white"/>
<path d="M68.9352 138.949V140.203H72.2172V141.38H67.6851V135.42H72.1391V136.597H68.9355V137.851H71.7486V138.949L68.9352 138.949Z" fill="white"/>
<path d="M75.8898 141.457C74.3269 141.457 73.3111 140.595 73.3111 138.791V135.341H74.6395V138.713C74.6395 139.654 75.1084 140.203 75.8898 140.203C76.6713 140.203 77.1401 139.732 77.1401 138.791V135.341H78.4685V138.713C78.4685 140.595 77.4527 141.457 75.8898 141.457Z" fill="white"/>
<path d="M83.4687 139.26C84.2502 139.025 84.719 138.398 84.719 137.378C84.719 136.124 83.8594 135.418 82.4529 135.418H79.7178V141.456H81.0463V139.574H82.0621L83.3124 141.456H84.8753L83.4687 139.26ZM83.3906 137.457C83.3906 137.927 82.9999 138.319 82.3747 138.319H81.0463V136.594H82.2966C82.9999 136.594 83.3906 136.908 83.3906 137.457Z" fill="white"/>
<path d="M88.8609 135.342C86.9855 135.342 85.6572 136.753 85.6572 138.478C85.6572 140.203 86.9857 141.536 88.783 141.536C90.6585 141.536 91.9867 140.125 91.9867 138.4C91.9867 136.675 90.6582 135.342 88.8609 135.342ZM90.6582 138.4C90.6582 139.419 89.8768 140.282 88.8609 140.282C87.845 140.282 87.0636 139.419 87.0636 138.4C87.0636 137.38 87.8451 136.518 88.8609 136.518C89.8768 136.518 90.6582 137.38 90.6582 138.4Z" fill="white"/>
<path d="M95.5803 135.42H93.1579V141.379H94.4863V139.576H95.424C96.7525 139.576 97.8465 138.87 97.8465 137.459C97.8465 136.283 96.9869 135.42 95.5803 135.42ZM96.518 137.537C96.518 138.086 96.1273 138.4 95.5022 138.4H94.4863V136.596H95.5022C96.1273 136.596 96.518 136.91 96.518 137.537Z" fill="white"/>
<path d="M100.112 138.949V140.203H103.316V141.38H98.862V135.42H103.316V136.597H100.112V137.851H102.926V138.949L100.112 138.949Z" fill="white"/>
<path d="M107.773 135.342H106.6L104.022 141.379H105.35L105.897 140.046H108.398L108.945 141.379H110.351L107.773 135.342ZM106.366 138.87L107.147 136.91L107.929 138.87H106.366Z" fill="white"/>
<path d="M116.524 135.42V141.379H115.43L112.539 137.616V141.379H111.211V135.42H112.461L115.274 139.106V135.42H116.524Z" fill="white"/>
<path d="M122.93 135.42H120.507V141.379H121.836V139.576H122.773C124.102 139.576 125.196 138.87 125.196 137.459C125.196 136.283 124.336 135.42 122.93 135.42ZM123.867 137.537C123.867 138.086 123.477 138.4 122.852 138.4H121.836V136.596H122.852C123.477 136.596 123.867 136.91 123.867 137.537Z" fill="white"/>
<path d="M128.792 135.342H127.62L125.042 141.379H126.37L126.917 140.046H129.418L129.965 141.379H131.371L128.792 135.342ZM127.386 138.87L128.167 136.91L128.949 138.87H127.386Z" fill="white"/>
<path d="M135.979 139.26C136.76 139.025 137.229 138.398 137.229 137.378C137.229 136.124 136.37 135.418 134.963 135.418H132.306V141.456H133.635V139.574H134.65L135.901 141.456H137.464L135.979 139.26ZM135.979 137.457C135.979 137.927 135.588 138.319 134.963 138.319H133.635V136.594H134.885C135.51 136.594 135.979 136.908 135.979 137.457Z" fill="white"/>
<path d="M141.139 136.594V141.378H139.811V136.594H138.013V135.418H142.936V136.594H141.139Z" fill="white"/>
<path d="M149.266 135.42V141.379H148.172L145.203 137.616V141.379H143.953V135.42H145.125L147.938 139.106V135.42H149.266Z" fill="white"/>
<path d="M151.923 138.949V140.203H155.205V141.38H150.673V135.42H155.205V136.597H151.923V137.851H154.815V138.949L151.923 138.949Z" fill="white"/>
<path d="M160.051 139.26C160.832 139.025 161.301 138.398 161.301 137.378C161.301 136.124 160.442 135.418 159.035 135.418H156.3V141.456H157.628V139.574H158.644L159.895 141.456H161.457L160.051 139.26ZM159.973 137.457C159.973 137.927 159.582 138.319 158.957 138.319H157.628V136.594H158.879C159.582 136.594 159.973 136.908 159.973 137.457Z" fill="white"/>
<path d="M164.662 141.457C163.802 141.457 162.865 141.144 162.161 140.516L162.943 139.576C163.49 140.046 164.037 140.281 164.74 140.281C165.287 140.281 165.6 140.046 165.6 139.732C165.6 139.419 165.365 139.262 164.428 138.948C163.255 138.635 162.474 138.321 162.474 137.145C162.474 136.047 163.334 135.341 164.584 135.341C165.443 135.341 166.147 135.577 166.772 136.125L166.147 137.066C165.6 136.674 165.053 136.518 164.584 136.518C164.115 136.518 163.802 136.753 163.802 137.066C163.802 137.458 164.037 137.615 165.053 137.851C166.225 138.164 166.928 138.635 166.928 139.654C166.772 140.83 165.912 141.457 164.662 141.457Z" fill="white"/>
</svg>
