<svg width="240" height="240" viewBox="0 0 240 240" fill="none" xmlns="http://www.w3.org/2000/svg">
<g clip-path="url(#clip0_2657_28635)">
<path d="M41.7062 119.208C42.2663 116.267 44.8425 114.231 48.4267 114.231C52.5711 114.231 55.8193 116.041 55.8193 121.697V132.216H52.235L51.787 129.954C50.5549 131.537 48.8748 132.555 46.4106 132.555C43.3864 132.555 41.0342 130.632 41.0342 127.126C41.0342 123.62 44.1704 121.357 48.5388 121.357H51.451V120.566C51.451 118.53 49.9949 117.964 48.3147 117.964C47.0826 117.964 45.8505 118.416 45.2905 120L41.7062 119.208ZM47.4187 128.823C49.4348 128.823 51.451 127.465 51.451 125.203V124.864H48.6508C46.7466 124.751 45.6265 125.542 45.6265 127.126C45.6265 127.918 46.2986 128.823 47.4187 128.823Z" fill="white"/>
<path d="M126.161 119.208C126.721 116.267 129.297 114.231 132.881 114.231C137.026 114.231 140.274 116.041 140.274 121.697V132.216H136.69L136.241 129.954C135.009 131.537 133.329 132.555 130.865 132.555C127.841 132.555 125.489 130.632 125.489 127.126C125.489 123.62 128.625 121.357 132.993 121.357H135.905V120.566C135.905 118.53 134.449 117.964 132.769 117.964C131.537 117.964 130.305 118.416 129.745 120L126.161 119.208ZM131.873 128.823C133.889 128.823 135.905 127.465 135.905 125.203V124.864H132.993C131.089 124.864 129.969 125.542 129.969 127.126C130.081 127.918 130.753 128.823 131.873 128.823Z" fill="white"/>
<path d="M144.194 132.329V114.458H148.562V117.398C149.795 115.249 151.811 114.231 153.715 114.231C154.499 114.231 155.171 114.345 155.843 114.571L155.059 118.643C154.499 118.303 153.939 118.077 153.267 118.077C150.691 118.077 148.562 120.226 148.562 125.882V132.216L144.194 132.329Z" fill="white"/>
<path d="M165.14 114.231C166.932 114.231 168.612 115.136 169.396 116.154V107.332H173.764V132.329H169.396V130.519C168.836 131.424 167.268 132.668 165.14 132.668C159.875 132.668 157.187 128.936 157.187 123.506C157.187 118.077 159.875 114.231 165.14 114.231ZM165.812 128.823C168.052 128.823 169.844 126.9 169.844 123.393C169.844 119.887 168.052 117.964 165.812 117.964C163.572 117.964 161.779 119.887 161.779 123.393C161.779 126.9 163.572 128.823 165.812 128.823Z" fill="white"/>
<path d="M189.446 117.059L186.869 119.434C186.085 118.303 184.853 117.851 183.957 117.851C183.061 117.851 182.277 118.416 182.277 119.321C182.277 120.113 182.949 120.679 183.957 121.018C186.421 121.923 190.342 122.715 190.342 126.447C190.342 129.728 187.877 132.329 184.069 132.329C180.373 132.329 177.909 129.728 177.125 127.578L180.597 125.656C181.269 127.352 182.389 128.596 184.181 128.596C185.525 128.596 186.421 127.918 186.421 126.674C186.421 125.203 184.181 124.864 182.053 123.959C180.149 123.167 178.469 121.923 178.469 119.208C178.469 116.494 180.709 114.005 184.069 114.005C186.309 114.118 188.438 115.362 189.446 117.059Z" fill="white"/>
<path d="M99.1666 114.458L96.0304 126.787L93.0062 114.458H88.9739L86.0616 126.787L83.5975 119.661L83.2614 120.452L81.9173 125.09L84.1575 132.329H87.9658L90.99 120.792L94.0143 132.329H97.9346L103.535 114.458H99.1666Z" fill="white"/>
<path d="M120.112 114.458L116.976 126.787L113.952 114.458H109.919L107.007 126.787L104.543 119.661L104.207 120.452L102.751 125.09L105.103 132.329H108.911L111.936 120.792L114.96 132.329H118.768L124.481 114.458H120.112Z" fill="white"/>
<path d="M82.5894 114.458L76.9889 132.216H73.1807L70.1564 120.792L67.1322 132.329H63.3239L57.7235 114.571H62.0918L65.228 126.787L68.2523 114.571H72.2846L75.3088 126.787L78.4451 114.571L82.5894 114.458Z" fill="white"/>
<path d="M196.054 126.56C197.734 126.56 198.966 127.805 198.966 129.501C198.966 131.198 197.734 132.442 196.054 132.442C194.374 132.442 193.142 131.198 193.142 129.501C193.142 127.805 194.374 126.56 196.054 126.56Z" fill="white"/>
</g>
<defs>
<clipPath id="clip0_2657_28635">
<rect width="240" height="240" rx="8.44557" fill="white"/>
</clipPath>
</defs>
</svg>
