<svg width="240" height="240" viewBox="0 0 240 240" fill="none" xmlns="http://www.w3.org/2000/svg">
<path d="M98.0711 110.606V117.768H90.0035V110.606H85.5567V129.399H90.0035V121.843H98.0711V129.399H102.518V110.606H98.0711Z" fill="white"/>
<path d="M118.809 110.606L114.158 118.049L109.513 110.606H104.267L111.943 122.89V129.399H116.384V122.89L124.06 110.606H118.809Z" fill="white"/>
<path d="M138.355 110.606V124.38C138.355 124.903 137.964 125.324 137.411 125.324H130.288V110.606H125.841V129.399H138.978C140.147 129.399 141.086 129.048 141.772 128.363C142.454 127.672 142.797 126.728 142.797 125.556V110.606H138.355Z" fill="white"/>
<path d="M160.053 110.606H146.917V129.399H151.358V114.676H158.492C159.066 114.676 159.431 115.129 159.431 115.615V129.399H163.872V114.449C163.872 113.273 163.524 112.328 162.848 111.643C162.156 110.952 161.223 110.606 160.053 110.606Z" fill="white"/>
<path d="M181.129 110.606H167.992V129.399H181.129C182.298 129.399 183.231 129.048 183.913 128.363C184.599 127.672 184.943 126.728 184.943 125.556V114.449C184.943 113.273 184.599 112.328 183.913 111.643C183.231 110.952 182.293 110.606 181.129 110.606ZM180.501 115.647V124.353C180.501 124.86 180.136 125.324 179.557 125.324H172.428V114.676H179.525C180.11 114.676 180.501 115.086 180.501 115.647Z" fill="white"/>
<path d="M192.688 110.606C191.524 110.606 190.58 110.952 189.899 111.643C189.212 112.334 188.874 113.278 188.874 114.449V129.399H193.305V123.586H201.378V129.399H205.82V110.606H192.688ZM201.378 114.676V119.517H193.305V115.631C193.305 115.167 193.664 114.676 194.255 114.676H201.378Z" fill="white"/>
<path d="M210.143 129.399H214.59V110.606H210.143V129.399Z" fill="white"/>
<path d="M50.8135 133.091C64.846 133.091 76.2232 127.229 76.2232 120.003C76.2232 112.771 64.846 106.909 50.8135 106.909C36.7864 106.909 25.4092 112.771 25.4092 120.003C25.4092 127.229 36.7864 133.091 50.8135 133.091ZM55.5983 126.668C55.1745 127.656 54.445 129.766 52.7714 130.608C52.2618 130.862 51.6342 130.981 51.0763 131.002C50.9475 131.002 50.8564 131.002 50.8187 131.002C46.1305 131.002 41.7641 130.343 38.1111 129.226C38.0839 129.215 37.9986 129.183 37.9718 129.172C37.6339 129.059 37.4622 128.902 37.4622 128.708C37.4622 128.541 37.5533 128.411 37.6712 128.293C37.725 128.244 37.8001 128.179 37.9021 128.087C38.7496 127.38 41.2868 125.529 46.0716 123.683C47.7505 123.041 49.8532 122.237 52.0525 121.767C53.3399 121.498 58.1247 120.758 55.5983 126.668ZM68.4345 113.472C68.5255 113.315 68.6438 113.181 68.8635 113.17C68.9815 113.158 69.1427 113.185 69.3892 113.342C72.3717 115.188 74.1418 117.498 74.1418 119.997C74.1418 124.509 68.3754 128.389 60.1255 130.084C59.5998 130.192 59.2458 130.187 59.1278 130.053C59.0421 129.972 59.0207 129.826 59.1278 129.648C59.176 129.556 59.2351 129.475 59.3476 129.34C63.8373 124.013 67.2596 116.155 68.2306 113.888C68.3057 113.732 68.3753 113.575 68.4345 113.472ZM46.1092 113.306C46.533 112.318 47.2625 110.208 48.9361 109.371C49.4457 109.117 50.0733 108.993 50.6311 108.977C50.76 108.973 50.8511 108.977 50.8834 108.977C55.577 108.977 59.938 109.63 63.5963 110.753C63.6235 110.765 63.7088 110.796 63.7356 110.807C64.0735 110.92 64.2452 111.077 64.2452 111.271C64.2452 111.438 64.1541 111.562 64.0362 111.681C63.9824 111.735 63.9073 111.8 63.8053 111.886C62.9632 112.599 60.4206 114.445 55.6358 116.29C53.9515 116.938 51.8541 117.737 49.6603 118.206C48.3675 118.482 43.5827 119.215 46.1092 113.306ZM41.5014 109.911C42.0325 109.808 42.3812 109.808 42.5099 109.942C42.585 110.028 42.6064 110.169 42.506 110.347C42.4523 110.439 42.3935 110.525 42.2861 110.65C37.7964 115.982 34.3741 123.834 33.3978 126.107C33.3282 126.263 33.253 126.42 33.1939 126.522C33.1078 126.679 32.9848 126.814 32.7701 126.825C32.6521 126.836 32.4859 126.801 32.239 126.652C29.2566 124.806 27.4865 122.496 27.4865 119.997C27.4865 115.485 33.2528 111.605 41.5028 109.91" fill="white"/>
</svg>
