<svg width="240" height="240" viewBox="0 0 240 240" fill="none" xmlns="http://www.w3.org/2000/svg">
<path d="M143.289 137.917C143.101 137.963 142.926 138.05 142.776 138.172C141.99 138.709 141.055 138.986 140.102 138.965C139.106 138.811 138.188 138.339 137.485 137.621L136.37 136.681L136.091 136.443L134.384 134.978C133.895 134.594 133.034 133.994 131.801 133.178C132.612 132.973 133.403 132.696 134.165 132.35C134.861 132.035 135.525 131.652 136.146 131.207C138.197 129.625 139.775 127.516 140.711 125.106C141.745 122.597 142.307 119.919 142.366 117.207C142.375 116.922 142.379 116.64 142.379 116.345C142.379 111.375 141.178 107.331 138.776 104.215C136.457 101.113 132.74 99.3651 128.863 99.5511C124.985 99.7371 121.454 101.833 119.444 105.142C117.37 108.6 116.334 112.578 116.456 116.604C116.456 116.803 116.456 117.002 116.462 117.199C116.425 122.174 118.377 126.958 121.887 130.496C121.33 130.816 120.859 131.267 120.515 131.81L119.888 131.643C118.521 131.2 117.35 130.301 116.571 129.098L107.785 117.195L107.017 116.154C106.771 115.874 106.618 115.525 106.578 115.154C106.641 114.865 106.787 114.6 106.998 114.392L113.266 107.033C116.384 103.397 118.494 101.397 119.598 101.031C119.995 101.019 120.344 100.766 120.477 100.393C120.481 100.257 120.424 100.126 120.321 100.035C120.219 99.945 120.081 99.9041 119.946 99.9239C119.754 99.9386 119.563 99.9708 119.377 100.02C118.872 100.085 118.362 100.109 117.852 100.094L116.473 100.118L114.78 100.053C114.204 100.057 113.627 100.028 113.053 99.967C112.889 99.9428 112.723 99.9284 112.557 99.9239C112.415 99.8922 112.265 99.9287 112.154 100.023C112.042 100.116 111.981 100.257 111.988 100.402C111.988 100.69 112.267 100.888 112.821 100.994C113.562 101.046 114.137 101.657 114.143 102.396C113.921 103.682 113.282 104.86 112.323 105.749L104.454 114.904L104.18 115.189L103.886 115.45C103.778 115.45 103.722 115.284 103.722 114.948V105.626C103.663 104.53 103.766 103.431 104.027 102.365C104.324 101.716 104.845 101.195 105.495 100.897C105.736 100.817 105.91 100.605 105.94 100.354C105.961 100.232 105.921 100.107 105.832 100.021C105.743 99.9349 105.617 99.8981 105.495 99.9228C105.199 99.9484 104.905 99.9889 104.613 100.044C104.34 100.066 104.024 100.076 103.657 100.076L102.277 100.137L101.595 100.168C100.61 100.189 99.6243 100.135 98.6477 100.006C98.4296 99.9557 98.2069 99.9283 97.9832 99.9239C97.8476 99.9036 97.7104 99.9478 97.6124 100.043C97.5145 100.139 97.4673 100.275 97.4849 100.41C97.5055 100.667 97.707 100.872 97.9639 100.898L98.8639 101.135C99.5899 101.298 100.192 101.8 100.482 102.484C100.83 103.64 100.973 104.848 100.905 106.053V117.205V126.353C100.972 127.785 100.819 129.218 100.45 130.603C100.39 130.776 100.313 130.942 100.222 131.1C100.029 130.982 99.8554 130.834 99.7092 130.661C99.0578 129.548 98.5769 128.343 98.2824 127.088L97.8785 125.805L95.2787 117.205L89.9811 99.6881C89.9735 99.381 89.7801 99.1091 89.4919 99C89.1931 99.1166 88.9885 99.3942 88.9662 99.7131L82.8768 117.205L79.5362 126.785L79.0106 128.351C78.7398 129.083 78.3968 129.786 77.9866 130.45C77.7629 130.913 77.4221 131.31 76.9978 131.601L76.3152 131.862C76.1185 131.941 75.9931 132.135 76.0023 132.346V132.386C75.9886 132.516 76.0376 132.646 76.1346 132.735C76.2316 132.824 76.3651 132.863 76.4949 132.839C76.5564 132.839 76.8966 132.787 77.5189 132.683C77.7928 132.653 78.0683 132.64 78.3438 132.644C79.1107 132.644 79.7865 132.66 80.368 132.693L82.1224 132.815C82.4035 132.831 82.6117 132.84 82.7448 132.84C83.0975 132.84 83.2659 132.705 83.2568 132.435C83.2549 132.408 83.2511 132.38 83.2454 132.353C83.1781 132.09 82.9547 131.897 82.6845 131.866C82.0481 131.744 81.4577 131.449 80.9778 131.015C80.6481 130.546 80.495 129.977 80.5455 129.406C80.6418 128.189 80.9191 126.992 81.3681 125.856L82.5832 122.378C82.7544 121.697 83.0528 121.055 83.4627 120.485C83.9862 120.231 84.5719 120.132 85.1501 120.2H91.7879C92.2159 120.146 92.6504 120.216 93.0395 120.402C93.33 120.864 93.535 121.373 93.6448 121.907L94.5676 125.037C95.1338 126.657 95.5113 128.336 95.6928 130.041C95.8313 130.733 95.4378 131.42 94.7701 131.653L94.2012 131.819C93.9421 131.85 93.747 132.069 93.7461 132.329V132.353C93.7277 132.484 93.7714 132.617 93.8646 132.713C93.9579 132.808 94.0901 132.855 94.2228 132.84C94.4155 132.829 94.6063 132.796 94.7917 132.743C95.848 132.609 96.9134 132.56 97.9775 132.596C98.8559 132.596 99.6558 132.586 100.307 132.588C100.786 132.608 105.629 132.806 106.015 132.865C106.504 132.926 106.836 132.966 107.007 132.986C107.134 133.012 107.266 132.97 107.355 132.877C107.445 132.783 107.48 132.65 107.448 132.525C107.446 132.466 107.434 132.408 107.412 132.354C107.307 132.164 107.117 132.038 106.901 132.014C105.9 131.921 104.97 131.455 104.299 130.709C103.816 129.571 103.62 128.332 103.73 127.101V118.408C103.73 118.044 103.844 117.861 104.072 117.861C104.254 117.877 104.421 117.973 104.527 118.122L104.878 118.645L114.718 131.772L115.03 132.215C115.067 132.262 115.101 132.307 115.137 132.348C115.369 132.649 115.727 132.828 116.108 132.834C116.305 132.834 116.584 132.817 116.949 132.785C117.278 132.753 117.809 132.737 118.542 132.737C119.212 132.737 119.68 132.751 119.96 132.775L119.911 132.88C119.351 134.008 119.034 135.239 118.978 136.496C118.978 136.56 118.978 136.619 118.978 136.674C118.947 136.813 118.98 136.959 119.068 137.072C119.156 137.185 119.29 137.252 119.433 137.257C119.688 137.181 119.855 136.938 119.837 136.674C119.855 136.591 119.87 136.499 119.883 136.4C119.986 135.367 120.381 134.384 121.021 133.566C121.481 132.877 122.24 132.444 123.069 132.397C124.552 132.666 125.939 133.313 127.097 134.275L130.168 136.391C130.248 136.448 130.379 136.543 130.56 136.675C131.076 137.053 131.994 137.742 133.314 138.742C134.757 140.022 136.571 140.813 138.494 141C139.687 140.971 140.854 140.648 141.89 140.059C143.068 139.433 143.645 138.833 143.62 138.26C143.635 138.167 143.606 138.073 143.541 138.005C143.476 137.938 143.382 137.905 143.289 137.917ZM91.2782 117.911H85.7406L85.2457 117.889C84.6813 117.889 84.3991 117.683 84.3991 117.273C84.4 117.25 84.4022 117.228 84.406 117.205C84.4582 116.93 84.5363 116.661 84.6392 116.4L88.2153 106.161C88.2241 105.968 88.3362 105.795 88.5088 105.708C88.789 105.872 88.968 106.164 88.9856 106.488L89.1323 106.984L92.011 116.348L92.1031 116.774C92.1391 116.915 92.1672 117.058 92.1873 117.203C92.1912 117.24 92.1931 117.278 92.193 117.316C92.1941 117.714 91.8915 117.911 91.2782 117.911ZM119.46 117.205C119.384 116.334 119.346 115.431 119.346 114.496C119.191 111.058 120.062 107.652 121.849 104.707C123.19 102.386 125.671 100.952 128.359 100.945C131.524 100.945 134.213 102.666 136.425 106.107C138.493 109.448 139.628 113.28 139.713 117.205C139.736 117.679 139.746 118.16 139.746 118.648C139.903 122.035 139.036 125.391 137.256 128.281C135.883 130.572 133.397 131.97 130.719 131.958C127.899 131.862 125.278 130.491 123.598 128.233C121.086 125.084 119.638 121.224 119.46 117.205ZM163.99 132.345C163.992 132.037 163.75 131.781 163.441 131.765C162.576 131.647 161.77 131.261 161.136 130.661C160.483 129.549 160.001 128.344 159.708 127.088L159.302 125.805L156.702 117.205L151.405 99.6881C151.398 99.3806 151.204 99.108 150.915 99C150.618 99.1169 150.414 99.3939 150.392 99.7119L144.301 117.205L140.965 126.785L140.433 128.351C140.162 129.083 139.819 129.786 139.409 130.45C139.186 130.914 138.845 131.311 138.419 131.601L137.736 131.862C137.54 131.941 137.416 132.135 137.428 132.346C137.428 132.359 137.428 132.372 137.428 132.386C137.414 132.516 137.463 132.646 137.56 132.735C137.657 132.824 137.791 132.863 137.921 132.839C137.981 132.839 138.322 132.787 138.945 132.683C139.218 132.653 139.492 132.64 139.766 132.644C140.534 132.644 141.208 132.66 141.794 132.693L143.547 132.815C143.829 132.831 144.034 132.84 144.168 132.84C144.522 132.84 144.694 132.705 144.68 132.435C144.68 132.408 144.677 132.38 144.672 132.353C144.605 132.09 144.382 131.897 144.111 131.866C143.475 131.743 142.885 131.448 142.405 131.015C142.077 130.545 141.924 129.976 141.974 129.406C142.07 128.189 142.347 126.992 142.795 125.856L144.01 122.378C144.181 121.697 144.48 121.055 144.89 120.485C145.413 120.231 145.999 120.132 146.577 120.2H153.216C153.642 120.147 154.075 120.217 154.462 120.402C154.753 120.863 154.959 121.373 155.067 121.907L155.996 125.033C156.561 126.652 156.938 128.331 157.119 130.037C157.257 130.727 156.865 131.415 156.198 131.649L155.629 131.814C155.37 131.845 155.175 132.064 155.174 132.324V132.348C155.155 132.48 155.199 132.612 155.292 132.707C155.384 132.803 155.516 132.849 155.649 132.834C155.841 132.823 156.032 132.79 156.218 132.737C157.274 132.603 158.339 132.554 159.403 132.591C161.027 132.591 162.158 132.625 162.792 132.695C163.146 132.723 163.379 132.738 163.489 132.738C163.61 132.765 163.737 132.737 163.835 132.662C163.934 132.587 163.994 132.473 164 132.349L163.99 132.345ZM152.703 117.911H147.162L146.668 117.889C146.105 117.889 145.823 117.683 145.823 117.273C145.823 117.251 145.825 117.228 145.828 117.206C145.881 116.931 145.959 116.662 146.063 116.401L149.639 106.162C149.648 105.97 149.76 105.797 149.931 105.709C150.212 105.872 150.391 106.165 150.407 106.489L150.555 106.985L153.432 116.349L153.526 116.775C153.561 116.917 153.589 117.06 153.609 117.204C153.614 117.241 153.617 117.279 153.618 117.317C153.62 117.713 153.314 117.911 152.703 117.911Z" fill="white"/>
</svg>
