<svg width="240" height="240" viewBox="0 0 240 240" fill="none" xmlns="http://www.w3.org/2000/svg">
<g clip-path="url(#clip0_2657_28587)">
<path d="M85.3268 106.539C85.401 106.838 85.1042 107.062 84.8815 107.137C83.9168 107.436 82.581 107.287 81.9874 108.408L81.9132 110.052L82.1358 130.977C82.5068 132.621 84.4363 132.322 85.4752 133.144C85.6236 133.294 85.5494 133.518 85.401 133.742C84.9557 134.116 84.1394 133.891 83.5458 133.966C80.5774 133.817 77.4606 133.966 74.4923 133.966C74.2696 133.966 73.9728 133.891 73.8986 133.592C74.1212 132.397 75.457 132.77 76.1991 132.322C76.9412 132.023 76.9412 131.201 77.0154 130.528C77.1638 125.073 77.1638 119.468 76.8669 114.087C76.7185 113.938 76.9412 113.639 76.6443 113.639L76.3475 114.162C74.047 120.29 71.7465 126.568 69.3718 132.696C69.2234 132.995 69.075 133.368 68.6297 133.443C68.1103 133.443 68.1103 132.845 67.8134 132.546C65.4387 126.269 62.7672 120.141 59.9472 114.087C59.7988 114.013 59.7246 114.013 59.6504 114.162C59.3536 119.543 59.2052 125.372 59.7246 130.827C59.873 131.425 60.0215 131.948 60.6151 132.173C61.5056 132.845 62.9156 132.471 63.6577 133.294C63.7319 133.518 63.6577 133.891 63.3609 134.041C61.8767 134.19 60.1699 134.041 58.6115 134.041L53.7137 134.19C53.4168 134.116 53.0458 134.116 52.8974 133.817C52.749 133.518 53.0458 133.219 53.2684 133.069C54.4558 132.621 56.0884 132.77 56.682 131.5L56.9047 130.379C56.9789 123.354 57.3499 116.329 58.1662 109.529C58.092 109.155 58.1662 108.707 57.8694 108.408C56.7562 107.735 55.4205 107.66 54.2331 107.137C54.0847 106.988 54.0847 106.764 54.2331 106.539C54.8268 106.166 55.5689 106.315 56.311 106.315L60.9862 106.39C61.5056 106.39 61.8767 106.689 62.2477 107.137C64.9193 112.817 67.3682 118.646 70.0397 124.326C70.1881 124.475 70.2623 124.699 70.485 124.625L70.7076 124.251C72.7854 118.646 74.8633 113.041 76.8669 107.287C77.238 106.315 78.2027 106.091 79.1674 106.24C81.0969 106.39 82.9521 106.091 84.8073 106.24C85.03 106.166 85.2526 106.315 85.3268 106.539Z" fill="white"/>
<path d="M166.734 115.806C166.883 116.553 166.66 117.525 167.031 118.198C167.18 118.422 167.328 118.198 167.476 118.123C168.812 116.852 170.445 115.433 172.448 116.18C173.116 116.404 173.71 117.151 173.784 117.899C173.858 118.646 173.636 119.319 173.265 119.842C172.894 120.29 172.3 120.589 171.706 120.589C170.222 120.589 168.886 117.824 167.476 119.916C167.18 120.29 167.105 120.739 167.031 121.262L166.883 130.23C166.957 130.753 167.105 131.276 167.625 131.5C168.367 131.874 169.406 132.023 170.371 132.247C170.667 132.322 170.816 132.621 170.667 132.92L170.371 133.144L167.105 132.995L161.391 133.443C161.094 133.443 160.649 133.443 160.649 133.144C160.575 132.546 161.243 132.546 161.54 132.322C162.059 132.173 162.653 132.023 163.024 131.5C163.246 130.902 163.321 130.23 163.321 129.557L163.469 121.71C163.618 120.514 162.801 119.618 161.836 119.094C161.614 118.87 161.614 118.721 161.836 118.422C163.246 117.6 164.656 116.628 166.066 115.358C166.289 115.208 166.66 115.507 166.734 115.806Z" fill="white"/>
<path d="M181.502 124.4C179.721 124.774 177.866 126.418 177.643 128.286C177.495 129.333 177.569 130.454 178.459 131.201C178.831 131.425 179.276 131.575 179.795 131.5C180.612 131.201 181.576 130.753 181.799 129.856C182.17 128.286 182.393 126.493 182.096 124.849C182.096 124.475 181.725 124.4 181.502 124.4ZM185.213 117.6C185.732 118.571 185.584 119.916 185.584 121.037L185.658 130.304C185.806 130.753 185.88 131.201 186.4 131.351C186.697 131.5 187.142 131.351 187.142 131.724C186.919 132.472 186.251 132.995 185.658 133.144C184.545 133.368 183.58 132.995 182.838 132.247C182.467 131.948 182.244 131.201 181.65 131.425C179.869 132.546 178.237 134.265 175.862 133.667C174.897 133.368 174.081 132.397 173.933 131.351C173.562 129.407 174.23 127.464 175.936 126.269C177.421 124.849 179.35 124.251 181.131 123.354C181.502 123.13 181.873 122.756 182.022 122.383C182.17 120.739 182.244 119.02 181.279 117.675C180.537 117.002 179.498 117.002 178.682 117.151C175.862 117.899 177.346 122.981 173.636 121.86C173.339 121.635 173.191 121.262 173.265 120.888C174.007 118.422 176.604 116.479 178.905 115.956C181.205 115.507 183.803 115.582 185.213 117.6Z" fill="white"/>
<path d="M154.861 124.4C153.08 124.774 151.225 126.418 151.002 128.286C150.854 129.333 150.928 130.454 151.818 131.201C152.189 131.425 152.635 131.575 153.154 131.5C153.896 131.201 154.935 130.753 155.158 129.856C155.529 128.286 155.751 126.493 155.454 124.849C155.454 124.475 155.158 124.4 154.861 124.4ZM158.571 117.6C159.091 118.571 158.942 119.916 158.942 121.037L159.017 130.304C159.165 130.753 159.313 131.201 159.833 131.351C160.055 131.5 160.575 131.351 160.649 131.724C160.426 132.472 159.759 132.995 159.165 133.144C158.052 133.368 157.087 132.995 156.345 132.247C155.974 131.948 155.751 131.201 155.158 131.425C153.377 132.546 151.744 134.265 149.369 133.667C148.405 133.368 147.588 132.397 147.44 131.351C147.069 129.407 147.737 127.464 149.444 126.269C150.928 124.849 152.857 124.251 154.638 123.354C155.009 123.13 155.38 122.756 155.529 122.383C155.677 120.739 155.751 119.02 154.787 117.675C154.045 117.002 153.006 117.002 152.189 117.151C149.369 117.899 150.854 122.981 147.143 121.86C146.846 121.635 146.698 121.262 146.772 120.888C147.514 118.422 150.111 116.479 152.412 115.956C154.638 115.507 157.161 115.582 158.571 117.6Z" fill="white"/>
<path d="M92.5992 124.924C91.6345 125.222 90.5956 125.746 89.8535 126.568C88.8887 127.614 88.5177 129.258 88.963 130.603C89.1856 131.126 89.705 131.799 90.2987 131.799C91.4119 131.948 92.3766 131.351 92.896 130.454C93.3413 128.884 93.3413 127.016 93.2671 125.372C93.1929 124.924 92.896 124.849 92.5992 124.924ZM147.514 106.166C147.588 106.465 147.366 106.689 147.143 106.764C146.104 107.212 144.62 106.913 144.1 108.109C144.026 115.657 144.249 122.906 144.323 130.454C144.397 130.902 144.62 131.351 145.065 131.724C145.807 132.098 146.772 132.397 147.662 132.621C147.885 132.77 147.885 133.144 147.811 133.368L147.44 133.667C143.804 133.518 140.093 133.817 136.531 133.667C136.308 133.667 136.16 133.518 136.16 133.368C136.234 132.173 137.644 132.546 138.386 132.098C138.683 132.023 139.054 131.724 139.203 131.351C139.425 128.884 139.425 126.418 139.425 123.803C139.499 120.215 139.351 116.778 139.203 113.34C139.203 113.265 139.128 113.191 139.054 113.191C138.683 113.415 138.609 114.013 138.312 114.461L134.527 124.774C134.453 125.073 134.379 125.148 134.231 125.521L131.559 132.397C131.336 132.696 131.262 133.144 130.891 133.219C130.594 133.294 130.298 133.069 130.149 132.77C127.7 126.343 124.954 119.991 122.134 113.714C121.838 113.564 121.912 114.013 121.838 114.162C121.467 119.692 121.467 125.372 121.912 131.052C122.654 132.397 124.212 132.322 125.548 132.696C125.771 132.92 125.845 133.219 125.771 133.443C125.474 133.966 124.806 133.742 124.287 133.742C119.834 133.518 115.233 133.891 110.632 133.817C109.667 133.667 108.703 134.041 107.812 133.592C107.589 133.443 107.589 133.219 107.664 132.995C107.961 132.472 108.777 132.397 108.777 131.724C108.851 130.902 108.183 130.454 107.886 129.706C107.367 128.959 106.922 128.287 106.179 127.689C105.883 127.614 105.734 127.763 105.512 127.913C104.77 128.884 104.102 129.781 103.656 130.753C103.508 131.052 103.434 131.5 103.656 131.799C103.953 132.472 105.066 132.621 104.77 133.443C103.953 133.817 102.988 133.593 102.024 133.667L97.9423 133.817C97.6454 133.817 97.5712 133.294 97.2002 133.518C96.3839 133.891 95.1965 133.817 94.4544 133.294C93.7124 132.995 93.6381 131.874 92.7476 132.098C90.8924 133.368 88.7403 135.237 86.2914 133.891C84.8815 132.995 84.8815 131.126 85.1041 129.632C86.2172 126.493 89.5566 125.073 92.2282 123.877C93.7866 122.98 93.0445 121.037 92.9703 119.543C92.8218 118.721 92.2282 118.048 91.4861 117.749C90.6698 117.525 89.6308 117.674 89.0372 118.198C87.6272 119.543 87.9982 122.831 85.1783 122.532C84.8815 122.457 84.5104 122.233 84.4362 121.785C84.5846 119.916 86.2172 118.422 87.7756 117.376C89.9277 116.105 93.4897 115.582 95.6418 117.45C97.0518 119.02 96.4581 121.635 96.5323 123.728L96.6065 130.827C96.6807 131.276 96.9033 131.649 97.3486 131.799C97.6454 131.799 98.0907 131.874 98.0907 132.247C98.0165 132.322 98.0165 132.546 98.0165 132.546C99.278 132.546 100.317 131.724 101.207 130.753C102.543 129.407 104.027 127.838 104.918 126.343L104.844 125.82C103.434 123.578 102.098 121.336 100.317 119.319C99.6491 118.646 98.7586 118.422 98.0165 117.973C97.9423 117.824 97.7196 117.6 97.9423 117.45L98.2391 117.226C100.688 117.376 102.914 117.002 105.363 117.151C105.66 117.226 106.031 117.226 106.179 117.525C106.179 118.422 104.398 118.272 104.992 119.393C105.808 120.664 106.476 121.785 107.293 122.981C107.441 123.205 107.664 122.981 107.812 122.906C108.628 121.635 110.038 120.514 110.038 118.945C109.964 118.198 108.183 118.123 109.296 117.301C111.226 117.226 113.155 117.376 115.159 117.226C115.381 117.226 115.53 117.45 115.604 117.6C115.381 118.571 114.268 118.347 113.6 118.795C111.597 120.141 110.038 122.009 108.703 123.952C108.48 125.222 109.519 126.119 110.113 127.091C111.448 128.884 112.561 130.753 114.343 132.322C115.678 132.696 117.237 132.322 118.35 131.575C118.795 130.977 118.721 130.155 118.869 129.407C118.795 124.699 119.166 120.215 119.463 115.582C119.686 113.191 120.057 110.949 120.057 108.482C119.611 107.287 118.201 107.511 117.237 107.137C116.791 106.988 116.272 106.988 116.049 106.539C115.975 106.24 116.198 106.091 116.346 105.942C118.498 105.792 120.799 105.867 122.951 105.867C123.396 106.016 123.916 106.24 124.138 106.689L131.93 123.877C132.004 124.027 132.153 124.251 132.375 124.176L132.598 123.877L138.832 106.838C139.054 106.465 139.425 106.016 139.945 105.867C141.651 105.717 143.358 105.792 145.214 105.643C146.03 105.792 147.069 105.418 147.514 106.166Z" fill="white"/>
</g>
<defs>
<clipPath id="clip0_2657_28587">
<rect width="240" height="240" rx="8.44557" fill="white"/>
</clipPath>
</defs>
</svg>
