<svg width="240" height="240" viewBox="0 0 240 240" fill="none" xmlns="http://www.w3.org/2000/svg">
<path d="M135.57 102.934H129.498C130.947 101.713 134.124 101.664 135.57 102.934Z" fill="white"/>
<path d="M137.383 105.756H127.598C127.627 105.668 127.655 105.582 127.681 105.498L127.681 105.497C127.751 105.279 127.817 105.072 127.908 104.878C127.944 104.8 128.12 104.754 128.232 104.753C129.107 104.746 129.981 104.747 130.855 104.748H130.855C131.146 104.748 131.437 104.748 131.728 104.748C132.13 104.748 132.531 104.749 132.933 104.749C134.205 104.75 135.477 104.75 136.748 104.744C136.958 104.743 137.085 104.793 137.142 105.011C137.186 105.178 137.242 105.342 137.302 105.516L137.302 105.516C137.328 105.593 137.355 105.673 137.383 105.755L137.383 105.756Z" fill="white"/>
<path d="M112.611 108.071L112.611 108.07C112.593 107.91 112.574 107.747 112.554 107.573H112.202C109.062 107.572 105.922 107.571 102.782 107.571C102.767 107.571 102.75 107.569 102.733 107.568C102.695 107.563 102.657 107.559 102.635 107.576C102.625 107.584 102.614 107.592 102.603 107.601C102.527 107.657 102.435 107.726 102.434 107.791C102.431 107.977 102.45 108.163 102.469 108.35C102.477 108.423 102.484 108.495 102.49 108.568H112.669C112.649 108.4 112.63 108.238 112.611 108.071Z" fill="white"/>
<path d="M137.517 108.569H127.338C127.347 108.488 127.355 108.409 127.362 108.331L127.362 108.331L127.362 108.331C127.382 108.128 127.401 107.933 127.436 107.741C127.448 107.675 127.552 107.593 127.624 107.58C127.728 107.562 127.835 107.566 127.942 107.569C127.985 107.57 128.028 107.572 128.071 107.572C131.109 107.572 134.147 107.572 137.185 107.572C137.271 107.572 137.358 107.579 137.456 107.586C137.501 107.589 137.549 107.593 137.6 107.596C137.587 107.752 137.574 107.902 137.562 108.05C137.547 108.223 137.532 108.394 137.517 108.569Z" fill="white"/>
<path d="M113.826 111.392H113.825C113.777 111.307 113.729 111.227 113.682 111.149C113.579 110.976 113.483 110.816 113.407 110.646C113.321 110.45 113.212 110.383 113.001 110.383C110.426 110.388 107.851 110.388 105.275 110.388C104.54 110.388 103.804 110.388 103.068 110.389C102.998 110.389 102.927 110.393 102.845 110.398C102.804 110.401 102.761 110.403 102.713 110.406C102.749 110.571 102.783 110.728 102.817 110.882L102.818 110.885C102.855 111.056 102.892 111.223 102.928 111.392H113.825L113.826 111.393L113.826 111.392Z" fill="white"/>
<path d="M123.108 114.023C122.981 114.085 122.848 114.15 122.71 114.224H135.79C135.81 114.224 135.83 114.225 135.851 114.226C135.901 114.228 135.951 114.231 135.998 114.219C136.06 114.204 136.148 114.175 136.169 114.127C136.261 113.913 136.346 113.695 136.436 113.461L136.436 113.461C136.469 113.376 136.502 113.29 136.537 113.201H136.091C135.155 113.201 134.219 113.202 133.283 113.202H133.283C130.631 113.203 127.98 113.205 125.328 113.195C124.778 113.193 124.281 113.239 123.824 113.608C123.618 113.773 123.377 113.892 123.108 114.023Z" fill="white"/>
<path d="M117.203 114.225H116.441C115.629 114.225 114.818 114.225 114.006 114.225H114.006C110.759 114.224 107.512 114.223 104.266 114.233C103.951 114.235 103.787 114.144 103.705 113.844C103.667 113.706 103.614 113.573 103.557 113.429C103.531 113.362 103.503 113.292 103.476 113.219C103.52 113.217 103.561 113.214 103.599 113.212C103.667 113.208 103.727 113.205 103.788 113.205C104.192 113.205 104.596 113.204 105 113.204H105.002C108.436 113.203 111.871 113.202 115.305 113.209C115.46 113.209 115.625 113.286 115.767 113.361C116.06 113.518 116.348 113.682 116.636 113.847C116.764 113.92 116.892 113.994 117.021 114.066C117.068 114.093 117.115 114.118 117.162 114.143C117.179 114.152 117.197 114.162 117.215 114.171C117.213 114.18 117.211 114.189 117.209 114.198C117.207 114.207 117.205 114.215 117.204 114.224L117.203 114.225Z" fill="white"/>
<path d="M107.135 119.263L107.133 119.262C107.014 119.134 106.89 119.002 106.76 118.864C106.82 118.86 106.872 118.856 106.918 118.853L106.918 118.853C106.998 118.846 107.061 118.842 107.124 118.841C107.313 118.841 107.503 118.841 107.693 118.842C108.101 118.843 108.51 118.843 108.918 118.836C109.039 118.835 109.175 118.797 109.276 118.732C109.903 118.325 110.527 117.911 111.151 117.497C111.311 117.391 111.472 117.284 111.632 117.178C111.652 117.165 111.671 117.15 111.708 117.119L111.708 117.119L111.708 117.119L111.708 117.119C111.731 117.1 111.761 117.075 111.803 117.042H111.452C111.002 117.042 110.551 117.041 110.101 117.041C108.637 117.04 107.173 117.039 105.709 117.048C105.468 117.049 105.32 116.978 105.208 116.766C105.126 116.61 105.032 116.459 104.924 116.285C104.873 116.203 104.819 116.115 104.76 116.018H105.192C105.902 116.019 106.613 116.018 107.323 116.017C109.155 116.015 110.988 116.013 112.82 116.027C113.653 116.033 114.447 115.925 115.255 115.688C118.601 114.705 121.944 114.786 125.274 115.824C125.656 115.943 126.07 116.009 126.469 116.012C128.576 116.024 130.683 116.022 132.79 116.021H132.79C133.455 116.021 134.12 116.02 134.785 116.02H135.249C135.185 116.121 135.125 116.217 135.068 116.31C134.924 116.543 134.794 116.754 134.647 116.951C134.593 117.023 134.435 117.038 134.324 117.039C132.679 117.043 131.033 117.043 129.388 117.043C129.089 117.043 128.79 117.043 128.491 117.043H128.203C128.247 117.074 128.282 117.1 128.313 117.121L128.313 117.121C128.374 117.166 128.414 117.194 128.454 117.221C128.638 117.342 128.821 117.464 129.004 117.585L129.005 117.586L129.005 117.586L129.006 117.587C129.539 117.941 130.073 118.296 130.614 118.637C130.788 118.747 131.008 118.826 131.21 118.835C131.604 118.853 132 118.848 132.395 118.844C132.568 118.842 132.741 118.841 132.915 118.841C132.969 118.841 133.024 118.846 133.097 118.852L133.097 118.852L133.097 118.852C133.138 118.856 133.184 118.86 133.24 118.864C132.995 119.126 132.769 119.368 132.545 119.607L132.398 119.765C132.329 119.839 132.259 119.913 132.189 119.988C132.296 120.105 132.404 120.221 132.512 120.337C132.752 120.595 132.991 120.852 133.22 121.12C135.771 124.1 137.21 127.552 137.534 131.502C137.624 132.604 137.579 133.669 137.23 134.711C136.66 136.409 135.544 137.502 133.786 137.861C132.353 138.153 130.972 138.004 129.713 137.235C128.211 136.317 127.517 134.871 127.468 133.137C127.424 131.611 127.165 130.165 126.332 128.88C124.699 126.361 122.382 125.061 119.419 125.315C116.352 125.578 114.214 127.285 113.028 130.186C112.655 131.097 112.566 132.065 112.543 133.047C112.478 135.932 110.443 137.962 107.611 137.991C106.372 138.004 105.207 137.754 104.225 136.935C103.172 136.057 102.702 134.86 102.489 133.531C102.277 132.214 102.483 130.916 102.712 129.633C103.38 125.906 105.09 122.732 107.746 120.083C107.759 120.07 107.77 120.055 107.785 120.034L107.785 120.034C107.794 120.022 107.804 120.009 107.816 119.993L107.818 119.992C107.591 119.75 107.37 119.514 107.135 119.263Z" fill="white"/>
<path d="M137.201 110.823C137.231 110.684 137.262 110.54 137.295 110.388H131.583C131.306 110.388 131.029 110.388 130.751 110.388C129.504 110.388 128.257 110.388 127.009 110.391C126.907 110.391 126.753 110.398 126.712 110.462C126.573 110.675 126.451 110.9 126.325 111.134C126.279 111.218 126.233 111.303 126.185 111.39H137.08C137.12 111.203 137.159 111.02 137.2 110.829L137.201 110.823Z" fill="white"/>
<path d="M102.701 105.491L102.701 105.491C102.673 105.576 102.644 105.663 102.613 105.752V105.753H112.403C112.373 105.659 112.342 105.569 112.313 105.482C112.251 105.299 112.193 105.127 112.141 104.952C112.092 104.784 111.99 104.742 111.829 104.746C111.531 104.753 111.232 104.751 110.933 104.75C110.814 104.75 110.694 104.749 110.575 104.749C110.249 104.749 109.924 104.749 109.598 104.749C107.483 104.749 105.369 104.749 103.254 104.755C103.143 104.755 102.97 104.801 102.933 104.878C102.841 105.071 102.773 105.275 102.701 105.491Z" fill="white"/>
<path d="M104.409 102.931C106.017 101.642 109.03 101.743 110.52 102.931H104.409Z" fill="white"/>
</svg>
