<svg width="240" height="240" viewBox="0 0 240 240" fill="none" xmlns="http://www.w3.org/2000/svg">
<path d="M180.738 116.754V119.033H199.6V120.975H180.738V123.254H199.6V125.19H178.339V114.818H199.6V116.754H180.738ZM173.106 119.018H158.531V114.8H156.136V125.171H158.531V121.299H173.105V125.171H175.501V114.8H173.105L173.106 119.018ZM133.564 117.106V122.895C133.562 123.197 133.623 123.496 133.743 123.776C133.863 124.055 134.039 124.309 134.263 124.523C134.486 124.738 134.752 124.908 135.045 125.024C135.338 125.14 135.652 125.2 135.969 125.2L153.34 125.183V122.904H136.294C136.214 122.903 136.138 122.873 136.08 122.821C136.022 122.769 135.986 122.699 135.98 122.623V117.417C135.992 117.327 136.039 117.244 136.111 117.185C136.183 117.126 136.276 117.094 136.372 117.096H153.34V114.817H135.998C135.356 114.815 134.739 115.055 134.283 115.484C133.827 115.914 133.568 116.498 133.564 117.108V117.106ZM128.284 119.029L112.982 119.035C112.931 119.038 112.879 119.031 112.831 119.014C112.782 118.998 112.738 118.972 112.7 118.938C112.662 118.905 112.632 118.865 112.611 118.82C112.591 118.775 112.58 118.726 112.579 118.677V117.123C112.579 117.074 112.589 117.025 112.61 116.979C112.63 116.934 112.66 116.892 112.697 116.858C112.735 116.824 112.779 116.797 112.828 116.779C112.876 116.762 112.928 116.754 112.98 116.756H130.347V114.818H112.539C111.904 114.826 111.298 115.072 110.855 115.504C110.411 115.935 110.165 116.517 110.172 117.121V118.676C110.172 119.287 110.427 119.873 110.881 120.305C111.336 120.738 111.952 120.98 112.595 120.98L127.896 120.975C127.948 120.973 127.999 120.981 128.047 120.998C128.095 121.015 128.139 121.041 128.176 121.074C128.214 121.108 128.244 121.148 128.265 121.193C128.286 121.237 128.297 121.285 128.298 121.334V122.895C128.298 122.944 128.287 122.992 128.266 123.037C128.246 123.082 128.215 123.123 128.178 123.156C128.14 123.19 128.096 123.215 128.047 123.232C127.999 123.249 127.947 123.256 127.895 123.253H110.5V125.189H128.285C128.926 125.19 129.541 124.949 129.995 124.519C130.449 124.089 130.705 123.505 130.706 122.895V121.335C130.704 120.724 130.448 120.14 129.994 119.708C129.541 119.276 128.926 119.033 128.284 119.031V119.029ZM107.398 125.135V125.163H104.987V124.755C104.987 124.144 104.732 123.558 104.278 123.125C103.823 122.693 103.207 122.451 102.565 122.451H89.2006V125.179H86.8049V114.809H104.966C105.282 114.808 105.595 114.867 105.887 114.982C106.18 115.097 106.445 115.265 106.669 115.478C106.893 115.69 107.07 115.942 107.192 116.22C107.313 116.498 107.375 116.795 107.376 117.096V119.344C107.38 119.939 107.14 120.512 106.707 120.942C106.274 121.372 105.682 121.624 105.057 121.646C105.757 121.954 106.35 122.447 106.765 123.066C107.18 123.684 107.399 124.403 107.398 125.137V125.135ZM104.971 117.49C104.97 117.387 104.926 117.288 104.85 117.214C104.774 117.141 104.67 117.099 104.562 117.097L89.1998 117.091V120.169H104.606C104.706 120.162 104.8 120.118 104.867 120.048C104.935 119.977 104.971 119.884 104.969 119.789L104.971 117.49ZM83.9099 117.1V122.89C83.9115 123.191 83.8505 123.489 83.7302 123.768C83.6099 124.047 83.4328 124.3 83.209 124.514C82.9853 124.727 82.7194 124.896 82.4267 125.011C82.1339 125.126 81.8201 125.185 81.5034 125.184H66.1668C65.8491 125.186 65.534 125.129 65.2397 125.015C64.9453 124.901 64.6775 124.733 64.4514 124.52C64.2254 124.308 64.0456 124.055 63.9224 123.777C63.7991 123.498 63.7349 123.199 63.7332 122.897V117.108C63.7363 116.497 63.9945 115.912 64.4509 115.481C64.9074 115.051 65.5249 114.811 66.1676 114.813H81.5412C82.1734 114.82 82.7771 115.064 83.2208 115.493C83.6645 115.921 83.9122 116.499 83.9099 117.1ZM81.5196 117.49C81.5164 117.386 81.4709 117.287 81.3927 117.214C81.3145 117.141 81.2096 117.099 81.1 117.098H66.5378C66.4423 117.096 66.3494 117.128 66.277 117.187C66.2047 117.246 66.158 117.329 66.146 117.419V122.626C66.1521 122.701 66.1877 122.772 66.2457 122.824C66.3037 122.876 66.3801 122.905 66.4597 122.906H81.1371C81.2399 122.901 81.3368 122.859 81.4084 122.788C81.48 122.718 81.5211 122.624 81.5235 122.526L81.5196 117.49ZM60.9156 117.1V120.158C60.916 120.46 60.8537 120.759 60.7323 121.038C60.6109 121.316 60.4329 121.57 60.2083 121.783C59.9837 121.996 59.7171 122.165 59.4238 122.279C59.1304 122.394 58.8161 122.453 58.499 122.451H42.7961V125.182H40.4004V114.811H58.499C58.8161 114.81 59.1304 114.868 59.4238 114.982C59.7173 115.096 59.9841 115.265 60.2089 115.477C60.4338 115.69 60.6122 115.943 60.734 116.221C60.8558 116.5 60.9185 116.799 60.9186 117.1H60.9156ZM58.5144 117.491C58.5136 117.388 58.4704 117.289 58.3941 117.216C58.3177 117.142 58.2142 117.1 58.1056 117.098L42.7961 117.094V120.171H58.1527C58.2535 120.165 58.3478 120.122 58.4157 120.051C58.4836 119.98 58.5196 119.887 58.516 119.791L58.5144 117.491Z" fill="white"/>
</svg>
