<svg width="240" height="240" viewBox="0 0 240 240" fill="none" xmlns="http://www.w3.org/2000/svg">
<g clip-path="url(#clip0_2657_28626)">
<path d="M100.576 131.824C95.6812 131.824 91.1373 130.365 88.1042 127.659C85.8127 125.614 84.7116 122.837 84.7116 119.979C84.7116 117.156 85.8602 114.36 88.1039 112.326C90.9208 109.774 95.8939 108.176 100.576 108.176C105.758 108.176 109.905 109.473 113.075 112.333C115.331 114.368 116.422 117.151 116.422 119.979C116.422 122.72 115.264 125.64 113.075 127.659C110.123 130.382 105.484 131.824 100.576 131.824V128.705C103.174 128.705 105.584 127.813 107.268 126.148C108.939 124.495 109.718 122.463 109.718 119.979C109.718 117.6 108.878 115.375 107.268 113.797C105.607 112.171 103.139 111.257 100.576 111.257C98.0053 111.257 95.536 112.162 93.8741 113.797C92.2726 115.375 91.4303 117.606 91.4303 119.979C91.4303 122.345 92.2824 124.575 93.8741 126.149C95.5374 127.793 97.9979 128.705 100.576 128.705V131.824ZM64.7985 108.187C62.18 108.187 59.2053 108.674 56.6777 109.796C54.345 110.831 52.4355 112.504 52.4355 115.278C52.4345 117.777 54.0319 119.24 53.9884 119.199C54.6679 119.821 55.7617 120.88 58.6214 121.501C59.8994 121.779 62.6318 122.206 65.3529 122.488C68.0538 122.772 70.7119 123.041 71.7946 123.313C72.6547 123.531 74.0996 123.827 74.0996 125.439C74.0996 127.043 72.5774 127.533 72.3128 127.639C72.0485 127.743 70.2224 128.576 66.9397 128.576C64.516 128.576 61.6023 127.852 60.5403 127.474C59.316 127.041 58.0317 126.468 56.8338 125.013C56.5358 124.653 56.0659 123.661 56.0659 122.679H53.0949V130.954H56.3972V129.836C56.3972 129.709 56.5573 129.185 57.1116 129.434C57.8014 129.746 59.8261 130.547 61.9432 130.986C63.6789 131.347 64.7982 131.606 66.9562 131.606C70.4772 131.606 72.3687 131.036 73.6763 130.665C74.9082 130.314 76.4305 129.684 77.667 128.704C78.3367 128.174 79.8052 126.816 79.8052 124.35C79.8052 121.983 78.5271 120.514 78.0775 120.067C77.4651 119.458 76.717 118.986 75.9374 118.622C75.2583 118.304 74.1865 117.922 73.3095 117.709C71.6073 117.294 67.7586 116.781 65.9181 116.59C63.988 116.389 60.6399 116.114 59.3027 115.702C58.8973 115.578 58.0708 115.186 58.0708 114.233C58.0708 113.554 58.4488 112.979 59.1958 112.514C60.3816 111.776 62.7767 111.317 65.2734 111.317C68.225 111.306 70.7246 111.977 72.3147 112.684C72.8555 112.924 73.4883 113.268 73.9908 113.676C74.5579 114.136 75.354 115.091 75.6419 116.423H78.3092V109.22H75.331V110.057C75.331 110.327 75.0501 110.679 74.5191 110.388C73.1863 109.693 69.4179 108.194 64.798 108.187H64.7985ZM130.066 109.496L144.594 122.529L144.445 113.754C144.43 112.604 144.217 112.123 142.965 112.123H140.233V109.499H152.655V112.123H149.991C148.714 112.123 148.633 112.529 148.618 113.754L148.843 130.52H144.589L127.855 115.676L127.859 126.211C127.873 127.356 127.927 127.896 129.115 127.896H132.098V130.519H119.898V127.896H122.75C123.815 127.896 123.773 126.886 123.773 126.151V113.854C123.773 113.06 123.661 112.125 121.989 112.125H119.674V109.496H130.066ZM166.85 127.891C166.967 127.891 167.485 127.876 167.586 127.845C167.872 127.756 168.067 127.553 168.157 127.341C168.195 127.252 168.214 126.858 168.214 126.773L168.216 122.625C168.216 122.525 168.209 122.482 168.039 122.259C167.851 122.017 160.429 113.656 160.089 113.287C159.667 112.83 158.926 112.124 157.801 112.124H155.219V109.498H169.787V112.12H168.031C167.625 112.12 167.355 112.503 167.702 112.929C167.702 112.929 172.603 118.757 172.649 118.818C172.695 118.88 172.734 118.895 172.797 118.838C172.858 118.78 177.821 112.982 177.86 112.937C178.096 112.656 177.936 112.123 177.427 112.123H175.626V109.498H187.565V112.123H184.897C183.93 112.123 183.536 112.301 182.808 113.119C182.475 113.494 174.973 122.005 174.769 122.236C174.662 122.356 174.672 122.524 174.672 122.624V126.772C174.672 126.856 174.69 127.25 174.728 127.339C174.819 127.552 175.014 127.755 175.301 127.843C175.401 127.874 175.913 127.889 176.029 127.889H178.757V130.514H164.265V127.889L166.851 127.891H166.85Z" fill="white"/>
</g>
<defs>
<clipPath id="clip0_2657_28626">
<rect width="240" height="240" rx="8.44557" fill="white"/>
</clipPath>
</defs>
</svg>
