<svg width="240" height="240" viewBox="0 0 240 240" fill="none" xmlns="http://www.w3.org/2000/svg">
<path fill-rule="evenodd" clip-rule="evenodd" d="M95.5 120C95.5 106.469 106.469 95.5 120 95.5C133.531 95.5 144.5 106.469 144.5 120C144.5 133.531 133.531 144.5 120 144.5C106.469 144.5 95.5 133.531 95.5 120ZM100.321 117.658H107.227C108.338 111.212 113.956 106.309 120.719 106.309H134.326C130.718 102.535 125.634 100.184 120 100.184C109.848 100.184 101.479 107.818 100.321 117.658ZM107.227 122.342H100.321C101.479 132.182 109.848 139.816 120 139.816C125.634 139.816 130.718 137.465 134.326 133.691H120.719C113.956 133.691 108.338 128.788 107.227 122.342ZM112.019 122.342H139.679C139.399 124.718 138.699 126.965 137.655 129.007H120.719C116.555 129.007 113.05 126.181 112.019 122.342ZM139.679 117.658H112.019C113.05 113.819 116.555 110.993 120.719 110.993H137.655C138.699 113.035 139.4 115.282 139.679 117.658Z" fill="white"/>
</svg>
